<svg xmlns="http://www.w3.org/2000/svg" xmlns:xlink="http://www.w3.org/1999/xlink" width="84" height="84" viewBox="0 0 84 84">
  <defs>
    <radialGradient id="radial-gradient" cx="0.5" cy="0.5" r="0.5" gradientUnits="objectBoundingBox">
      <stop offset="0" stop-color="#fff"/>
      <stop offset="0.733" stop-color="#fff" stop-opacity="0.8"/>
      <stop offset="1" stop-color="#fff" stop-opacity="0"/>
    </radialGradient>
    <clipPath id="clip-path">
      <rect id="Rectángulo_471461" data-name="Rectángulo 471461" width="43.467" height="43.486" fill="#12263f"/>
    </clipPath>
  </defs>
  <g id="Grupo_1221071" data-name="Grupo 1221071" transform="translate(-705.629 -410)">
    <g id="Grupo_1180287" data-name="Grupo 1180287">
      <circle id="Elipse_13692" data-name="Elipse 13692" cx="42" cy="42" r="42" transform="translate(705.629 410)" fill="url(#radial-gradient)"/>
      <g id="Grupo_1221280" data-name="Grupo 1221280" transform="translate(725.896 427.586)">
        <g id="Grupo_1221279" data-name="Grupo 1221279" clip-path="url(#clip-path)">
          <path id="Trazado_1277562" data-name="Trazado 1277562" d="M37.716,21.148l-1.632.624c-.079,1.068.091,2.074-.91,2.073l-4.594-.006a.791.791,0,0,1-.8-.723l-.027-1.3-1.566-.6c-.76.515-1.365,1.5-2.119.752l-3.189-3.184a.858.858,0,0,1-.076-1.2l.886-.935a11.877,11.877,0,0,1-.679-1.543l-1.2-.035a.815.815,0,0,1-.818-.8l.007-4.749c0-.469.512-.739.925-.738l1.088,0a13.344,13.344,0,0,1,.677-1.624l-.9-.927A.816.816,0,0,1,22.91,5.05l3.345-3.3a.813.813,0,0,1,.936.047l.945.913a10.719,10.719,0,0,1,1.6-.652L29.769.812a.821.821,0,0,1,.859-.807L35.12,0a.856.856,0,0,1,.905.844l.038,1.2a9.851,9.851,0,0,1,1.552.666l.869-.831a.88.88,0,0,1,1.246.036l3.247,3.274c.8.8-.829,1.7-.778,2.023.089.556.442,1.017.565,1.592l6.163.008A5.389,5.389,0,0,1,47.856,5.3a4.677,4.677,0,1,1,9.32-.135A5.619,5.619,0,0,1,56.1,8.82a5.965,5.965,0,0,1,5.5,5.852l0,5.17a.925.925,0,0,1-.96.8l-13.406,0a.883.883,0,0,1-.9-.923l0-4.651-3.519-.021L42.126,16.7l.9.942a.831.831,0,0,1-.009,1l-3.394,3.391a.785.785,0,0,1-1.08-.047ZM31.48,22.156l2.883-.085c-.1-.534-.141-1.443.388-1.618a29.056,29.056,0,0,0,2.988-1.226c.467-.109.943.512,1.267.917l2.12-2.026c-.407-.406-1.127-.856-.91-1.359l.728-1.686-2.108-.049-1-.234a5.722,5.722,0,1,1,.023-5.709,7.762,7.762,0,0,1,3.082-.267c-.235-.971-1.141-1.723-.566-2.323l.759-.792-2-2.013-.731.692c-.733.694-1.39-.344-3.31-.825-1.041-.261-.634-1.128-.893-1.814l-2.773.016c-.013.428.168,1.286-.24,1.522-.9.51-1.943.654-2.825,1.252-.583.4-1.094-.27-1.7-.817L24.674,5.7l.776.861a.806.806,0,0,1,.065.822,16.883,16.883,0,0,0-1.2,2.756c-.223.474-1.084.384-1.592.327l-.061,2.849c.845.1,1.6-.115,1.824.727.535,2,1.562,2.694.815,3.452l-.646.655,2.021,2,.723-.688a.817.817,0,0,1,1.006-.119c1.789,1.026,3.009.826,3.043,1.84ZM55.5,5.241c-.026-1.934-1.174-3.415-3.056-3.378s-2.9,1.588-2.919,3.446c-.021,1.888,1.1,3.523,3.045,3.483,1.9-.039,2.956-1.626,2.93-3.55M36.45,10.25a3.814,3.814,0,0,0-4.5-2.244,4.027,4.027,0,0,0-.025,7.826c1.748.439,3.988-.42,4.525-2.257a4.842,4.842,0,0,1,0-3.324m19.394,5.1a.8.8,0,0,1,.911-.754.85.85,0,0,1,.756.767l.02,3.538,2.362,0,.019-3.942a4.351,4.351,0,0,0-4.423-4.441L39.338,10.5A1.449,1.449,0,0,0,37.8,11.777a1.362,1.362,0,0,0,1.26,1.548l8.143.027a.806.806,0,0,1,.824.787l.016,4.761,7.765,0Z" transform="translate(-18.134 0)" fill="#12263f"/>
          <path id="Trazado_1277563" data-name="Trazado 1277563" d="M42.576,214.3l-17.013,0a.826.826,0,0,1-.831-.882.845.845,0,0,1,.863-.815l2.224-.041,0-2.363a3.422,3.422,0,0,0-3.216-3.489l-5.853.012a3.449,3.449,0,0,0-3.144,3.608l.013,2.259,2.262.015a.848.848,0,1,1,.034,1.695l-17.076,0a.817.817,0,0,1-.83-.821L0,210.219a5.2,5.2,0,0,1,4.523-5.2,5.183,5.183,0,0,1-.784-2.94,4.1,4.1,0,0,1,4.077-4.4,4.055,4.055,0,0,1,4.021,4.4,4.489,4.489,0,0,1-.764,2.927,5.309,5.309,0,0,1,3.667,2.3,5.5,5.5,0,0,1,3.686-2.3,4.509,4.509,0,0,1-.732-2.935,4.036,4.036,0,1,1,8.026.138,3.984,3.984,0,0,1-.756,2.793,5.255,5.255,0,0,1,3.7,2.326,5.177,5.177,0,0,1,3.693-2.308,4.228,4.228,0,0,1-.746-2.812,4.03,4.03,0,0,1,3.9-4.528,4.086,4.086,0,0,1,4.172,4.253,5.161,5.161,0,0,1-.772,3.072,5.241,5.241,0,0,1,4.517,5.211l0,3.133a.893.893,0,0,1-.858.95M10.187,202.142c0-1.614-.956-2.827-2.505-2.761-1.5.065-2.271,1.35-2.261,2.832a2.5,2.5,0,0,0,2.387,2.743c1.51-.012,2.377-1.24,2.38-2.814m13.921,0a2.49,2.49,0,0,0-2.44-2.766c-1.55.038-2.353,1.33-2.342,2.837a2.478,2.478,0,0,0,2.473,2.741c1.441-.047,2.308-1.259,2.309-2.812m13.9,0c0-1.587-.927-2.81-2.463-2.763-1.509.046-2.315,1.341-2.305,2.831a2.483,2.483,0,0,0,2.432,2.744c1.505-.031,2.34-1.248,2.336-2.813M13.9,212.6l.019-2.4a3.418,3.418,0,0,0-3.179-3.477l-5.984.013a3.3,3.3,0,0,0-3.043,3.325l.014,2.544Zm27.835,0,.006-2.533a3.423,3.423,0,0,0-3.151-3.337l-5.985.006a3.246,3.246,0,0,0-3.05,3.114l-.005,2.762Z" transform="translate(0 -170.821)" fill="#12263f"/>
          <path id="Trazado_1277564" data-name="Trazado 1277564" d="M154.29,307.767a.834.834,0,0,1,1.167.321.851.851,0,0,1-.368,1.151.873.873,0,0,1-1.064-.247.848.848,0,0,1,.265-1.225" transform="translate(-132.963 -265.852)" fill="#12263f"/>
        </g>
      </g>
    </g>
    <g id="Elipse_13693" data-name="Elipse 13693" transform="translate(705.629 410)" fill="none" stroke="#fff" stroke-width="1">
      <circle cx="42" cy="42" r="42" stroke="none"/>
      <circle cx="42" cy="42" r="41.5" fill="none"/>
    </g>
  </g>
</svg>
